<mxfile host="app.diagrams.net" modified="2024-04-23T18:41:28.710Z" agent="Mozilla/5.0 (Macintosh; Intel Mac OS X 10_15_7) AppleWebKit/537.36 (KHTML, like Gecko) Chrome/124.0.0.0 Safari/537.36" etag="u9my4I0LlpiwoeCgwIyr" version="24.2.3" type="github">
  <diagram name="Page-1" id="v0tTaWyq1nLYoC63SeAB">
    <mxGraphModel dx="2739" dy="2184" grid="1" gridSize="10" guides="1" tooltips="1" connect="1" arrows="1" fold="1" page="1" pageScale="1" pageWidth="827" pageHeight="1169" math="0" shadow="0">
      <root>
        <mxCell id="0" />
        <mxCell id="1" parent="0" />
        <mxCell id="fpXEtSabcTMRcEUNp3vz-118" value="" style="rounded=0;whiteSpace=wrap;html=1;fillColor=none;dashed=1;dashPattern=12 12;" vertex="1" parent="1">
          <mxGeometry x="-40" y="-50" width="1770" height="740" as="geometry" />
        </mxCell>
        <mxCell id="fpXEtSabcTMRcEUNp3vz-1" value="User" style="shape=umlActor;verticalLabelPosition=bottom;verticalAlign=top;html=1;outlineConnect=0;" vertex="1" parent="1">
          <mxGeometry x="-430" y="225" width="30" height="60" as="geometry" />
        </mxCell>
        <mxCell id="fpXEtSabcTMRcEUNp3vz-87" style="edgeStyle=orthogonalEdgeStyle;rounded=0;orthogonalLoop=1;jettySize=auto;html=1;dashed=1;" edge="1" parent="1" source="fpXEtSabcTMRcEUNp3vz-2" target="fpXEtSabcTMRcEUNp3vz-76">
          <mxGeometry relative="1" as="geometry">
            <Array as="points">
              <mxPoint x="25" y="65" />
            </Array>
          </mxGeometry>
        </mxCell>
        <mxCell id="fpXEtSabcTMRcEUNp3vz-88" style="edgeStyle=orthogonalEdgeStyle;rounded=0;orthogonalLoop=1;jettySize=auto;html=1;dashed=1;" edge="1" parent="1" source="fpXEtSabcTMRcEUNp3vz-2" target="fpXEtSabcTMRcEUNp3vz-63">
          <mxGeometry relative="1" as="geometry">
            <Array as="points">
              <mxPoint x="25" y="160" />
            </Array>
          </mxGeometry>
        </mxCell>
        <mxCell id="fpXEtSabcTMRcEUNp3vz-89" style="edgeStyle=orthogonalEdgeStyle;rounded=0;orthogonalLoop=1;jettySize=auto;html=1;dashed=1;" edge="1" parent="1" source="fpXEtSabcTMRcEUNp3vz-2" target="fpXEtSabcTMRcEUNp3vz-49">
          <mxGeometry relative="1" as="geometry" />
        </mxCell>
        <mxCell id="fpXEtSabcTMRcEUNp3vz-90" style="edgeStyle=orthogonalEdgeStyle;rounded=0;orthogonalLoop=1;jettySize=auto;html=1;dashed=1;" edge="1" parent="1" source="fpXEtSabcTMRcEUNp3vz-2" target="fpXEtSabcTMRcEUNp3vz-7">
          <mxGeometry relative="1" as="geometry">
            <Array as="points">
              <mxPoint x="25" y="345" />
            </Array>
          </mxGeometry>
        </mxCell>
        <mxCell id="fpXEtSabcTMRcEUNp3vz-91" style="edgeStyle=orthogonalEdgeStyle;rounded=0;orthogonalLoop=1;jettySize=auto;html=1;dashed=1;" edge="1" parent="1" source="fpXEtSabcTMRcEUNp3vz-2" target="fpXEtSabcTMRcEUNp3vz-31">
          <mxGeometry relative="1" as="geometry">
            <Array as="points">
              <mxPoint x="25" y="435" />
            </Array>
          </mxGeometry>
        </mxCell>
        <mxCell id="fpXEtSabcTMRcEUNp3vz-102" style="edgeStyle=orthogonalEdgeStyle;rounded=0;orthogonalLoop=1;jettySize=auto;html=1;dashed=1;fillColor=#dae8fc;strokeColor=#6c8ebf;" edge="1" parent="1" source="fpXEtSabcTMRcEUNp3vz-2" target="fpXEtSabcTMRcEUNp3vz-94">
          <mxGeometry relative="1" as="geometry">
            <Array as="points">
              <mxPoint y="255" />
              <mxPoint y="530" />
              <mxPoint x="395" y="530" />
            </Array>
          </mxGeometry>
        </mxCell>
        <mxCell id="fpXEtSabcTMRcEUNp3vz-111" style="edgeStyle=orthogonalEdgeStyle;rounded=0;orthogonalLoop=1;jettySize=auto;html=1;entryX=1;entryY=0.5;entryDx=0;entryDy=0;dashed=1;fillColor=#f8cecc;strokeColor=#b85450;exitX=0.145;exitY=0.855;exitDx=0;exitDy=0;exitPerimeter=0;" edge="1" parent="1" source="fpXEtSabcTMRcEUNp3vz-2" target="fpXEtSabcTMRcEUNp3vz-93">
          <mxGeometry relative="1" as="geometry">
            <mxPoint x="-110.00000000000023" y="255" as="sourcePoint" />
            <Array as="points">
              <mxPoint x="-140" y="281" />
              <mxPoint x="-140" y="380" />
            </Array>
          </mxGeometry>
        </mxCell>
        <mxCell id="fpXEtSabcTMRcEUNp3vz-41" style="edgeStyle=orthogonalEdgeStyle;rounded=0;orthogonalLoop=1;jettySize=auto;html=1;entryX=0;entryY=0.5;entryDx=0;entryDy=0;" edge="1" parent="1" source="fpXEtSabcTMRcEUNp3vz-5" target="fpXEtSabcTMRcEUNp3vz-12">
          <mxGeometry relative="1" as="geometry" />
        </mxCell>
        <mxCell id="fpXEtSabcTMRcEUNp3vz-5" value="account-verifications" style="outlineConnect=0;dashed=0;verticalLabelPosition=bottom;verticalAlign=top;align=center;html=1;shape=mxgraph.aws3.queue;fillColor=#D9A741;gradientColor=none;" vertex="1" parent="1">
          <mxGeometry x="826" y="322" width="110" height="38" as="geometry" />
        </mxCell>
        <mxCell id="fpXEtSabcTMRcEUNp3vz-25" value="" style="edgeStyle=orthogonalEdgeStyle;rounded=0;orthogonalLoop=1;jettySize=auto;html=1;entryX=0;entryY=0.5;entryDx=0;entryDy=0;" edge="1" parent="1" source="fpXEtSabcTMRcEUNp3vz-6" target="fpXEtSabcTMRcEUNp3vz-24">
          <mxGeometry relative="1" as="geometry" />
        </mxCell>
        <mxCell id="fpXEtSabcTMRcEUNp3vz-6" value="Account Verification Service" style="rounded=1;whiteSpace=wrap;html=1;" vertex="1" parent="1">
          <mxGeometry x="1241" y="321" width="120" height="40" as="geometry" />
        </mxCell>
        <mxCell id="fpXEtSabcTMRcEUNp3vz-9" value="" style="edgeStyle=orthogonalEdgeStyle;rounded=0;orthogonalLoop=1;jettySize=auto;html=1;" edge="1" parent="1" source="fpXEtSabcTMRcEUNp3vz-7" target="fpXEtSabcTMRcEUNp3vz-8">
          <mxGeometry relative="1" as="geometry" />
        </mxCell>
        <mxCell id="fpXEtSabcTMRcEUNp3vz-7" value="user.signup" style="sketch=0;outlineConnect=0;fontColor=#232F3E;gradientColor=none;fillColor=#8C4FFF;strokeColor=none;dashed=0;verticalLabelPosition=bottom;verticalAlign=top;align=center;html=1;fontSize=12;fontStyle=0;aspect=fixed;pointerEvents=1;shape=mxgraph.aws4.endpoint;" vertex="1" parent="1">
          <mxGeometry x="364" y="320" width="50" height="50" as="geometry" />
        </mxCell>
        <mxCell id="fpXEtSabcTMRcEUNp3vz-20" style="edgeStyle=orthogonalEdgeStyle;rounded=0;orthogonalLoop=1;jettySize=auto;html=1;entryX=0;entryY=0.7;entryDx=0;entryDy=0;" edge="1" parent="1" source="fpXEtSabcTMRcEUNp3vz-8" target="fpXEtSabcTMRcEUNp3vz-17">
          <mxGeometry relative="1" as="geometry" />
        </mxCell>
        <mxCell id="fpXEtSabcTMRcEUNp3vz-8" value="AccountVerificationProducer" style="rounded=1;whiteSpace=wrap;html=1;" vertex="1" parent="1">
          <mxGeometry x="480" y="330" width="170" height="30" as="geometry" />
        </mxCell>
        <mxCell id="fpXEtSabcTMRcEUNp3vz-23" value="" style="edgeStyle=orthogonalEdgeStyle;rounded=0;orthogonalLoop=1;jettySize=auto;html=1;" edge="1" parent="1" source="fpXEtSabcTMRcEUNp3vz-12" target="fpXEtSabcTMRcEUNp3vz-6">
          <mxGeometry relative="1" as="geometry" />
        </mxCell>
        <mxCell id="fpXEtSabcTMRcEUNp3vz-12" value="AccountVerificationConsumer" style="rounded=1;whiteSpace=wrap;html=1;" vertex="1" parent="1">
          <mxGeometry x="1005" y="326" width="170" height="30" as="geometry" />
        </mxCell>
        <mxCell id="fpXEtSabcTMRcEUNp3vz-19" style="edgeStyle=orthogonalEdgeStyle;rounded=0;orthogonalLoop=1;jettySize=auto;html=1;entryX=0;entryY=0.5;entryDx=0;entryDy=0;entryPerimeter=0;exitX=1;exitY=0.5;exitDx=0;exitDy=0;" edge="1" parent="1" source="fpXEtSabcTMRcEUNp3vz-17" target="fpXEtSabcTMRcEUNp3vz-5">
          <mxGeometry relative="1" as="geometry" />
        </mxCell>
        <mxCell id="fpXEtSabcTMRcEUNp3vz-17" value="verifyAccount" style="shape=message;html=1;html=1;outlineConnect=0;labelPosition=center;verticalLabelPosition=bottom;align=center;verticalAlign=top;" vertex="1" parent="1">
          <mxGeometry x="720" y="330" width="30" height="22" as="geometry" />
        </mxCell>
        <mxCell id="fpXEtSabcTMRcEUNp3vz-121" style="edgeStyle=orthogonalEdgeStyle;rounded=0;orthogonalLoop=1;jettySize=auto;html=1;" edge="1" parent="1" source="fpXEtSabcTMRcEUNp3vz-24" target="fpXEtSabcTMRcEUNp3vz-120">
          <mxGeometry relative="1" as="geometry" />
        </mxCell>
        <mxCell id="fpXEtSabcTMRcEUNp3vz-24" value="EmailService" style="rounded=1;whiteSpace=wrap;html=1;" vertex="1" parent="1">
          <mxGeometry x="1480" y="271" width="120" height="40" as="geometry" />
        </mxCell>
        <mxCell id="fpXEtSabcTMRcEUNp3vz-27" value="" style="edgeStyle=orthogonalEdgeStyle;rounded=0;orthogonalLoop=1;jettySize=auto;html=1;" edge="1" parent="1" source="fpXEtSabcTMRcEUNp3vz-28" target="fpXEtSabcTMRcEUNp3vz-36">
          <mxGeometry relative="1" as="geometry" />
        </mxCell>
        <mxCell id="fpXEtSabcTMRcEUNp3vz-28" value="subscriptions" style="outlineConnect=0;dashed=0;verticalLabelPosition=bottom;verticalAlign=top;align=center;html=1;shape=mxgraph.aws3.queue;fillColor=#D9A741;gradientColor=none;" vertex="1" parent="1">
          <mxGeometry x="826" y="412" width="110" height="38" as="geometry" />
        </mxCell>
        <mxCell id="fpXEtSabcTMRcEUNp3vz-44" style="edgeStyle=orthogonalEdgeStyle;rounded=0;orthogonalLoop=1;jettySize=auto;html=1;entryX=0.5;entryY=1;entryDx=0;entryDy=0;" edge="1" parent="1" source="fpXEtSabcTMRcEUNp3vz-29" target="fpXEtSabcTMRcEUNp3vz-24">
          <mxGeometry relative="1" as="geometry" />
        </mxCell>
        <mxCell id="fpXEtSabcTMRcEUNp3vz-29" value="Subscription Service" style="rounded=1;whiteSpace=wrap;html=1;" vertex="1" parent="1">
          <mxGeometry x="1241" y="411" width="120" height="40" as="geometry" />
        </mxCell>
        <mxCell id="fpXEtSabcTMRcEUNp3vz-30" value="" style="edgeStyle=orthogonalEdgeStyle;rounded=0;orthogonalLoop=1;jettySize=auto;html=1;" edge="1" parent="1" source="fpXEtSabcTMRcEUNp3vz-31" target="fpXEtSabcTMRcEUNp3vz-33">
          <mxGeometry relative="1" as="geometry" />
        </mxCell>
        <mxCell id="fpXEtSabcTMRcEUNp3vz-31" value="user.subscribe" style="sketch=0;outlineConnect=0;fontColor=#232F3E;gradientColor=none;fillColor=#8C4FFF;strokeColor=none;dashed=0;verticalLabelPosition=bottom;verticalAlign=top;align=center;html=1;fontSize=12;fontStyle=0;aspect=fixed;pointerEvents=1;shape=mxgraph.aws4.endpoint;" vertex="1" parent="1">
          <mxGeometry x="364" y="410" width="50" height="50" as="geometry" />
        </mxCell>
        <mxCell id="fpXEtSabcTMRcEUNp3vz-32" style="edgeStyle=orthogonalEdgeStyle;rounded=0;orthogonalLoop=1;jettySize=auto;html=1;entryX=0;entryY=0.7;entryDx=0;entryDy=0;" edge="1" parent="1" source="fpXEtSabcTMRcEUNp3vz-33" target="fpXEtSabcTMRcEUNp3vz-38">
          <mxGeometry relative="1" as="geometry" />
        </mxCell>
        <mxCell id="fpXEtSabcTMRcEUNp3vz-33" value="SubscriptionProducer" style="rounded=1;whiteSpace=wrap;html=1;" vertex="1" parent="1">
          <mxGeometry x="480" y="420" width="170" height="30" as="geometry" />
        </mxCell>
        <mxCell id="fpXEtSabcTMRcEUNp3vz-34" value="" style="shape=image;verticalLabelPosition=bottom;labelBackgroundColor=default;verticalAlign=top;aspect=fixed;imageAspect=0;image=https://pbs.twimg.com/profile_images/1223261138059780097/eH73w5lN_400x400.jpg;" vertex="1" parent="1">
          <mxGeometry x="460" y="388" width="40" height="40" as="geometry" />
        </mxCell>
        <mxCell id="fpXEtSabcTMRcEUNp3vz-35" value="" style="edgeStyle=orthogonalEdgeStyle;rounded=0;orthogonalLoop=1;jettySize=auto;html=1;" edge="1" parent="1" source="fpXEtSabcTMRcEUNp3vz-36" target="fpXEtSabcTMRcEUNp3vz-29">
          <mxGeometry relative="1" as="geometry" />
        </mxCell>
        <mxCell id="fpXEtSabcTMRcEUNp3vz-36" value="SubscriptionConsumer" style="rounded=1;whiteSpace=wrap;html=1;" vertex="1" parent="1">
          <mxGeometry x="1005" y="416" width="170" height="30" as="geometry" />
        </mxCell>
        <mxCell id="fpXEtSabcTMRcEUNp3vz-37" style="edgeStyle=orthogonalEdgeStyle;rounded=0;orthogonalLoop=1;jettySize=auto;html=1;entryX=0;entryY=0.5;entryDx=0;entryDy=0;entryPerimeter=0;exitX=1;exitY=0.5;exitDx=0;exitDy=0;" edge="1" parent="1" source="fpXEtSabcTMRcEUNp3vz-38" target="fpXEtSabcTMRcEUNp3vz-28">
          <mxGeometry relative="1" as="geometry" />
        </mxCell>
        <mxCell id="fpXEtSabcTMRcEUNp3vz-38" value="registerSubscription" style="shape=message;html=1;html=1;outlineConnect=0;labelPosition=center;verticalLabelPosition=bottom;align=center;verticalAlign=top;" vertex="1" parent="1">
          <mxGeometry x="720" y="420" width="30" height="22" as="geometry" />
        </mxCell>
        <mxCell id="fpXEtSabcTMRcEUNp3vz-39" value="" style="shape=image;verticalLabelPosition=bottom;labelBackgroundColor=default;verticalAlign=top;aspect=fixed;imageAspect=0;image=https://pbs.twimg.com/profile_images/1223261138059780097/eH73w5lN_400x400.jpg;" vertex="1" parent="1">
          <mxGeometry x="980" y="380" width="40" height="40" as="geometry" />
        </mxCell>
        <mxCell id="fpXEtSabcTMRcEUNp3vz-42" value="" style="shape=image;verticalLabelPosition=bottom;labelBackgroundColor=default;verticalAlign=top;aspect=fixed;imageAspect=0;image=https://pbs.twimg.com/profile_images/1223261138059780097/eH73w5lN_400x400.jpg;" vertex="1" parent="1">
          <mxGeometry x="980" y="290" width="40" height="40" as="geometry" />
        </mxCell>
        <mxCell id="fpXEtSabcTMRcEUNp3vz-43" value="" style="shape=image;verticalLabelPosition=bottom;labelBackgroundColor=default;verticalAlign=top;aspect=fixed;imageAspect=0;image=https://pbs.twimg.com/profile_images/1223261138059780097/eH73w5lN_400x400.jpg;" vertex="1" parent="1">
          <mxGeometry x="460" y="300" width="40" height="40" as="geometry" />
        </mxCell>
        <mxCell id="fpXEtSabcTMRcEUNp3vz-45" style="edgeStyle=orthogonalEdgeStyle;rounded=0;orthogonalLoop=1;jettySize=auto;html=1;entryX=0;entryY=0.5;entryDx=0;entryDy=0;" edge="1" parent="1" source="fpXEtSabcTMRcEUNp3vz-46" target="fpXEtSabcTMRcEUNp3vz-53">
          <mxGeometry relative="1" as="geometry" />
        </mxCell>
        <mxCell id="fpXEtSabcTMRcEUNp3vz-46" value="password-resets" style="outlineConnect=0;dashed=0;verticalLabelPosition=bottom;verticalAlign=top;align=center;html=1;shape=mxgraph.aws3.queue;fillColor=#D9A741;gradientColor=none;" vertex="1" parent="1">
          <mxGeometry x="826" y="232" width="110" height="38" as="geometry" />
        </mxCell>
        <mxCell id="fpXEtSabcTMRcEUNp3vz-85" style="edgeStyle=orthogonalEdgeStyle;rounded=0;orthogonalLoop=1;jettySize=auto;html=1;entryX=0;entryY=0.5;entryDx=0;entryDy=0;" edge="1" parent="1" source="fpXEtSabcTMRcEUNp3vz-47" target="fpXEtSabcTMRcEUNp3vz-24">
          <mxGeometry relative="1" as="geometry" />
        </mxCell>
        <mxCell id="fpXEtSabcTMRcEUNp3vz-47" value="Password Reset Service" style="rounded=1;whiteSpace=wrap;html=1;" vertex="1" parent="1">
          <mxGeometry x="1241" y="231" width="120" height="40" as="geometry" />
        </mxCell>
        <mxCell id="fpXEtSabcTMRcEUNp3vz-48" value="" style="edgeStyle=orthogonalEdgeStyle;rounded=0;orthogonalLoop=1;jettySize=auto;html=1;" edge="1" parent="1" source="fpXEtSabcTMRcEUNp3vz-49" target="fpXEtSabcTMRcEUNp3vz-51">
          <mxGeometry relative="1" as="geometry" />
        </mxCell>
        <mxCell id="fpXEtSabcTMRcEUNp3vz-49" value="password.sendPasswordResetLink" style="sketch=0;outlineConnect=0;fontColor=#232F3E;gradientColor=none;fillColor=#8C4FFF;strokeColor=none;dashed=0;verticalLabelPosition=bottom;verticalAlign=top;align=center;html=1;fontSize=12;fontStyle=0;aspect=fixed;pointerEvents=1;shape=mxgraph.aws4.endpoint;" vertex="1" parent="1">
          <mxGeometry x="364" y="230" width="50" height="50" as="geometry" />
        </mxCell>
        <mxCell id="fpXEtSabcTMRcEUNp3vz-50" style="edgeStyle=orthogonalEdgeStyle;rounded=0;orthogonalLoop=1;jettySize=auto;html=1;entryX=0;entryY=0.7;entryDx=0;entryDy=0;" edge="1" parent="1" source="fpXEtSabcTMRcEUNp3vz-51" target="fpXEtSabcTMRcEUNp3vz-55">
          <mxGeometry relative="1" as="geometry" />
        </mxCell>
        <mxCell id="fpXEtSabcTMRcEUNp3vz-51" value="PasswordResetProducer" style="rounded=1;whiteSpace=wrap;html=1;" vertex="1" parent="1">
          <mxGeometry x="480" y="240" width="170" height="30" as="geometry" />
        </mxCell>
        <mxCell id="fpXEtSabcTMRcEUNp3vz-52" value="" style="edgeStyle=orthogonalEdgeStyle;rounded=0;orthogonalLoop=1;jettySize=auto;html=1;" edge="1" parent="1" source="fpXEtSabcTMRcEUNp3vz-53" target="fpXEtSabcTMRcEUNp3vz-47">
          <mxGeometry relative="1" as="geometry" />
        </mxCell>
        <mxCell id="fpXEtSabcTMRcEUNp3vz-53" value="PasswordResetConsumer" style="rounded=1;whiteSpace=wrap;html=1;" vertex="1" parent="1">
          <mxGeometry x="1005" y="236" width="170" height="30" as="geometry" />
        </mxCell>
        <mxCell id="fpXEtSabcTMRcEUNp3vz-54" style="edgeStyle=orthogonalEdgeStyle;rounded=0;orthogonalLoop=1;jettySize=auto;html=1;entryX=0;entryY=0.5;entryDx=0;entryDy=0;entryPerimeter=0;exitX=1;exitY=0.5;exitDx=0;exitDy=0;" edge="1" parent="1" source="fpXEtSabcTMRcEUNp3vz-55" target="fpXEtSabcTMRcEUNp3vz-46">
          <mxGeometry relative="1" as="geometry" />
        </mxCell>
        <mxCell id="fpXEtSabcTMRcEUNp3vz-55" value="resetPassword" style="shape=message;html=1;html=1;outlineConnect=0;labelPosition=center;verticalLabelPosition=bottom;align=center;verticalAlign=top;" vertex="1" parent="1">
          <mxGeometry x="720" y="240" width="30" height="22" as="geometry" />
        </mxCell>
        <mxCell id="fpXEtSabcTMRcEUNp3vz-56" value="" style="shape=image;verticalLabelPosition=bottom;labelBackgroundColor=default;verticalAlign=top;aspect=fixed;imageAspect=0;image=https://pbs.twimg.com/profile_images/1223261138059780097/eH73w5lN_400x400.jpg;" vertex="1" parent="1">
          <mxGeometry x="980" y="200" width="40" height="40" as="geometry" />
        </mxCell>
        <mxCell id="fpXEtSabcTMRcEUNp3vz-57" value="" style="shape=image;verticalLabelPosition=bottom;labelBackgroundColor=default;verticalAlign=top;aspect=fixed;imageAspect=0;image=https://pbs.twimg.com/profile_images/1223261138059780097/eH73w5lN_400x400.jpg;" vertex="1" parent="1">
          <mxGeometry x="460" y="210" width="40" height="40" as="geometry" />
        </mxCell>
        <mxCell id="fpXEtSabcTMRcEUNp3vz-60" value="reports" style="outlineConnect=0;dashed=0;verticalLabelPosition=bottom;verticalAlign=top;align=center;html=1;shape=mxgraph.aws3.queue;fillColor=#D9A741;gradientColor=none;" vertex="1" parent="1">
          <mxGeometry x="826" y="96" width="110" height="38" as="geometry" />
        </mxCell>
        <mxCell id="fpXEtSabcTMRcEUNp3vz-62" value="" style="edgeStyle=orthogonalEdgeStyle;rounded=0;orthogonalLoop=1;jettySize=auto;html=1;entryX=0.5;entryY=1;entryDx=0;entryDy=0;" edge="1" parent="1" source="fpXEtSabcTMRcEUNp3vz-63" target="fpXEtSabcTMRcEUNp3vz-78">
          <mxGeometry relative="1" as="geometry">
            <mxPoint x="480" y="165" as="targetPoint" />
          </mxGeometry>
        </mxCell>
        <mxCell id="fpXEtSabcTMRcEUNp3vz-63" value="report.report" style="sketch=0;outlineConnect=0;fontColor=#232F3E;gradientColor=none;fillColor=#8C4FFF;strokeColor=none;dashed=0;verticalLabelPosition=bottom;verticalAlign=top;align=center;html=1;fontSize=12;fontStyle=0;aspect=fixed;pointerEvents=1;shape=mxgraph.aws4.endpoint;" vertex="1" parent="1">
          <mxGeometry x="364" y="140" width="50" height="50" as="geometry" />
        </mxCell>
        <mxCell id="fpXEtSabcTMRcEUNp3vz-64" style="edgeStyle=orthogonalEdgeStyle;rounded=0;orthogonalLoop=1;jettySize=auto;html=1;entryX=0;entryY=0.7;entryDx=0;entryDy=0;exitX=1;exitY=0.5;exitDx=0;exitDy=0;" edge="1" parent="1" source="fpXEtSabcTMRcEUNp3vz-78" target="fpXEtSabcTMRcEUNp3vz-69">
          <mxGeometry relative="1" as="geometry">
            <mxPoint x="650" y="165" as="sourcePoint" />
          </mxGeometry>
        </mxCell>
        <mxCell id="fpXEtSabcTMRcEUNp3vz-68" style="edgeStyle=orthogonalEdgeStyle;rounded=0;orthogonalLoop=1;jettySize=auto;html=1;entryX=0.5;entryY=1;entryDx=0;entryDy=0;entryPerimeter=0;exitX=1;exitY=0.5;exitDx=0;exitDy=0;" edge="1" parent="1" source="fpXEtSabcTMRcEUNp3vz-69" target="fpXEtSabcTMRcEUNp3vz-60">
          <mxGeometry relative="1" as="geometry" />
        </mxCell>
        <mxCell id="fpXEtSabcTMRcEUNp3vz-69" value="registerReport" style="shape=message;html=1;html=1;outlineConnect=0;labelPosition=center;verticalLabelPosition=bottom;align=center;verticalAlign=top;" vertex="1" parent="1">
          <mxGeometry x="720" y="150" width="30" height="22" as="geometry" />
        </mxCell>
        <mxCell id="fpXEtSabcTMRcEUNp3vz-72" style="edgeStyle=orthogonalEdgeStyle;rounded=0;orthogonalLoop=1;jettySize=auto;html=1;entryX=0;entryY=0.5;entryDx=0;entryDy=0;exitX=1;exitY=0.5;exitDx=0;exitDy=0;exitPerimeter=0;" edge="1" parent="1" source="fpXEtSabcTMRcEUNp3vz-60" target="fpXEtSabcTMRcEUNp3vz-80">
          <mxGeometry relative="1" as="geometry">
            <mxPoint x="936" y="61" as="sourcePoint" />
          </mxGeometry>
        </mxCell>
        <mxCell id="fpXEtSabcTMRcEUNp3vz-86" style="edgeStyle=orthogonalEdgeStyle;rounded=0;orthogonalLoop=1;jettySize=auto;html=1;" edge="1" parent="1" source="fpXEtSabcTMRcEUNp3vz-74" target="fpXEtSabcTMRcEUNp3vz-24">
          <mxGeometry relative="1" as="geometry" />
        </mxCell>
        <mxCell id="fpXEtSabcTMRcEUNp3vz-74" value="Report Service" style="rounded=1;whiteSpace=wrap;html=1;" vertex="1" parent="1">
          <mxGeometry x="1241" y="95" width="120" height="40" as="geometry" />
        </mxCell>
        <mxCell id="fpXEtSabcTMRcEUNp3vz-75" value="" style="edgeStyle=orthogonalEdgeStyle;rounded=0;orthogonalLoop=1;jettySize=auto;html=1;" edge="1" parent="1" source="fpXEtSabcTMRcEUNp3vz-76" target="fpXEtSabcTMRcEUNp3vz-78">
          <mxGeometry relative="1" as="geometry" />
        </mxCell>
        <mxCell id="fpXEtSabcTMRcEUNp3vz-76" value="report.updateReport" style="sketch=0;outlineConnect=0;fontColor=#232F3E;gradientColor=none;fillColor=#8C4FFF;strokeColor=none;dashed=0;verticalLabelPosition=bottom;verticalAlign=top;align=center;html=1;fontSize=12;fontStyle=0;aspect=fixed;pointerEvents=1;shape=mxgraph.aws4.endpoint;" vertex="1" parent="1">
          <mxGeometry x="364" y="40" width="50" height="50" as="geometry" />
        </mxCell>
        <mxCell id="fpXEtSabcTMRcEUNp3vz-77" style="edgeStyle=orthogonalEdgeStyle;rounded=0;orthogonalLoop=1;jettySize=auto;html=1;entryX=0;entryY=0.7;entryDx=0;entryDy=0;" edge="1" parent="1" source="fpXEtSabcTMRcEUNp3vz-78" target="fpXEtSabcTMRcEUNp3vz-82">
          <mxGeometry relative="1" as="geometry" />
        </mxCell>
        <mxCell id="fpXEtSabcTMRcEUNp3vz-78" value="reportProducer" style="rounded=1;whiteSpace=wrap;html=1;" vertex="1" parent="1">
          <mxGeometry x="480" y="100" width="170" height="30" as="geometry" />
        </mxCell>
        <mxCell id="fpXEtSabcTMRcEUNp3vz-79" value="" style="edgeStyle=orthogonalEdgeStyle;rounded=0;orthogonalLoop=1;jettySize=auto;html=1;" edge="1" parent="1" source="fpXEtSabcTMRcEUNp3vz-80" target="fpXEtSabcTMRcEUNp3vz-74">
          <mxGeometry relative="1" as="geometry" />
        </mxCell>
        <mxCell id="fpXEtSabcTMRcEUNp3vz-80" value="reportConsumer" style="rounded=1;whiteSpace=wrap;html=1;" vertex="1" parent="1">
          <mxGeometry x="1000" y="100" width="170" height="30" as="geometry" />
        </mxCell>
        <mxCell id="fpXEtSabcTMRcEUNp3vz-81" style="edgeStyle=orthogonalEdgeStyle;rounded=0;orthogonalLoop=1;jettySize=auto;html=1;entryX=0.5;entryY=0;entryDx=0;entryDy=0;entryPerimeter=0;exitX=1;exitY=0.5;exitDx=0;exitDy=0;" edge="1" parent="1" source="fpXEtSabcTMRcEUNp3vz-82" target="fpXEtSabcTMRcEUNp3vz-60">
          <mxGeometry relative="1" as="geometry">
            <mxPoint x="826" y="61" as="targetPoint" />
          </mxGeometry>
        </mxCell>
        <mxCell id="fpXEtSabcTMRcEUNp3vz-82" value="updateReport" style="shape=message;html=1;html=1;outlineConnect=0;labelPosition=center;verticalLabelPosition=bottom;align=center;verticalAlign=top;" vertex="1" parent="1">
          <mxGeometry x="720" y="50" width="30" height="22" as="geometry" />
        </mxCell>
        <mxCell id="fpXEtSabcTMRcEUNp3vz-83" value="" style="shape=image;verticalLabelPosition=bottom;labelBackgroundColor=default;verticalAlign=top;aspect=fixed;imageAspect=0;image=https://pbs.twimg.com/profile_images/1223261138059780097/eH73w5lN_400x400.jpg;" vertex="1" parent="1">
          <mxGeometry x="980" y="72" width="40" height="40" as="geometry" />
        </mxCell>
        <mxCell id="fpXEtSabcTMRcEUNp3vz-84" value="" style="shape=image;verticalLabelPosition=bottom;labelBackgroundColor=default;verticalAlign=top;aspect=fixed;imageAspect=0;image=https://pbs.twimg.com/profile_images/1223261138059780097/eH73w5lN_400x400.jpg;" vertex="1" parent="1">
          <mxGeometry x="460" y="20" width="40" height="40" as="geometry" />
        </mxCell>
        <mxCell id="fpXEtSabcTMRcEUNp3vz-93" value="NewReportView" style="shape=parallelogram;perimeter=parallelogramPerimeter;whiteSpace=wrap;html=1;fixedSize=1;" vertex="1" parent="1">
          <mxGeometry x="-310" y="350" width="120" height="60" as="geometry" />
        </mxCell>
        <mxCell id="fpXEtSabcTMRcEUNp3vz-94" value="s3Images.getSignedUrl" style="sketch=0;outlineConnect=0;fontColor=#232F3E;gradientColor=none;fillColor=#8C4FFF;strokeColor=none;dashed=0;verticalLabelPosition=bottom;verticalAlign=top;align=center;html=1;fontSize=12;fontStyle=0;aspect=fixed;pointerEvents=1;shape=mxgraph.aws4.endpoint;" vertex="1" parent="1">
          <mxGeometry x="370" y="550" width="50" height="50" as="geometry" />
        </mxCell>
        <mxCell id="fpXEtSabcTMRcEUNp3vz-98" style="edgeStyle=orthogonalEdgeStyle;rounded=0;orthogonalLoop=1;jettySize=auto;html=1;exitX=0.5;exitY=0.5;exitDx=0;exitDy=0;exitPerimeter=0;entryX=0;entryY=0.5;entryDx=0;entryDy=0;entryPerimeter=0;" edge="1" parent="1" source="fpXEtSabcTMRcEUNp3vz-1" target="fpXEtSabcTMRcEUNp3vz-128">
          <mxGeometry relative="1" as="geometry">
            <mxPoint x="-110.00000000000023" y="255" as="targetPoint" />
          </mxGeometry>
        </mxCell>
        <mxCell id="fpXEtSabcTMRcEUNp3vz-101" style="edgeStyle=orthogonalEdgeStyle;rounded=0;orthogonalLoop=1;jettySize=auto;html=1;entryX=0.145;entryY=0.855;entryDx=0;entryDy=0;entryPerimeter=0;dashed=1;fillColor=#dae8fc;strokeColor=#6c8ebf;exitX=1;exitY=0.75;exitDx=0;exitDy=0;" edge="1" parent="1" source="fpXEtSabcTMRcEUNp3vz-93" target="fpXEtSabcTMRcEUNp3vz-2">
          <mxGeometry relative="1" as="geometry">
            <mxPoint x="-110.00000000000023" y="255" as="targetPoint" />
          </mxGeometry>
        </mxCell>
        <mxCell id="fpXEtSabcTMRcEUNp3vz-124" value="ask for signed url" style="edgeLabel;html=1;align=center;verticalAlign=middle;resizable=0;points=[];" vertex="1" connectable="0" parent="fpXEtSabcTMRcEUNp3vz-101">
          <mxGeometry x="-0.1245" y="2" relative="1" as="geometry">
            <mxPoint x="1" as="offset" />
          </mxGeometry>
        </mxCell>
        <mxCell id="fpXEtSabcTMRcEUNp3vz-107" style="edgeStyle=orthogonalEdgeStyle;rounded=0;orthogonalLoop=1;jettySize=auto;html=1;" edge="1" parent="1" source="fpXEtSabcTMRcEUNp3vz-105" target="fpXEtSabcTMRcEUNp3vz-94">
          <mxGeometry relative="1" as="geometry">
            <Array as="points">
              <mxPoint x="490" y="865" />
              <mxPoint x="490" y="575" />
            </Array>
          </mxGeometry>
        </mxCell>
        <mxCell id="fpXEtSabcTMRcEUNp3vz-105" value="s3 bucket" style="shape=cylinder3;whiteSpace=wrap;html=1;boundedLbl=1;backgroundOutline=1;size=15;" vertex="1" parent="1">
          <mxGeometry x="60" y="820" width="70" height="90" as="geometry" />
        </mxCell>
        <mxCell id="fpXEtSabcTMRcEUNp3vz-103" value="" style="outlineConnect=0;dashed=0;verticalLabelPosition=bottom;verticalAlign=top;align=center;html=1;shape=mxgraph.aws3.s3;fillColor=#E05243;gradientColor=none;" vertex="1" parent="1">
          <mxGeometry x="30" y="800" width="40" height="50" as="geometry" />
        </mxCell>
        <mxCell id="fpXEtSabcTMRcEUNp3vz-106" style="edgeStyle=orthogonalEdgeStyle;rounded=0;orthogonalLoop=1;jettySize=auto;html=1;entryX=1;entryY=0.5;entryDx=0;entryDy=0;entryPerimeter=0;" edge="1" parent="1" source="fpXEtSabcTMRcEUNp3vz-94" target="fpXEtSabcTMRcEUNp3vz-105">
          <mxGeometry relative="1" as="geometry">
            <Array as="points">
              <mxPoint x="490" y="575" />
              <mxPoint x="490" y="865" />
            </Array>
          </mxGeometry>
        </mxCell>
        <mxCell id="fpXEtSabcTMRcEUNp3vz-108" value="getSignedUrlPromise" style="edgeLabel;html=1;align=center;verticalAlign=middle;resizable=0;points=[];" vertex="1" connectable="0" parent="fpXEtSabcTMRcEUNp3vz-106">
          <mxGeometry x="-0.3687" y="-1" relative="1" as="geometry">
            <mxPoint as="offset" />
          </mxGeometry>
        </mxCell>
        <mxCell id="fpXEtSabcTMRcEUNp3vz-109" style="edgeStyle=orthogonalEdgeStyle;rounded=0;orthogonalLoop=1;jettySize=auto;html=1;entryX=0.855;entryY=0.855;entryDx=0;entryDy=0;entryPerimeter=0;dashed=1;fillColor=#f8cecc;strokeColor=#b85450;" edge="1" parent="1" source="fpXEtSabcTMRcEUNp3vz-94" target="fpXEtSabcTMRcEUNp3vz-2">
          <mxGeometry relative="1" as="geometry">
            <mxPoint x="340" y="590" as="sourcePoint" />
            <Array as="points">
              <mxPoint x="-21" y="575" />
            </Array>
          </mxGeometry>
        </mxCell>
        <mxCell id="fpXEtSabcTMRcEUNp3vz-125" value="return signed url" style="edgeLabel;html=1;align=center;verticalAlign=middle;resizable=0;points=[];" vertex="1" connectable="0" parent="fpXEtSabcTMRcEUNp3vz-109">
          <mxGeometry x="-0.3094" relative="1" as="geometry">
            <mxPoint as="offset" />
          </mxGeometry>
        </mxCell>
        <mxCell id="fpXEtSabcTMRcEUNp3vz-113" style="edgeStyle=orthogonalEdgeStyle;rounded=0;orthogonalLoop=1;jettySize=auto;html=1;entryX=0;entryY=0.5;entryDx=0;entryDy=0;entryPerimeter=0;exitX=0.5;exitY=1;exitDx=0;exitDy=0;" edge="1" parent="1" source="fpXEtSabcTMRcEUNp3vz-93" target="fpXEtSabcTMRcEUNp3vz-105">
          <mxGeometry relative="1" as="geometry">
            <Array as="points">
              <mxPoint x="-250" y="865" />
            </Array>
          </mxGeometry>
        </mxCell>
        <mxCell id="fpXEtSabcTMRcEUNp3vz-115" value="upload images to signed url" style="edgeLabel;html=1;align=center;verticalAlign=middle;resizable=0;points=[];" vertex="1" connectable="0" parent="fpXEtSabcTMRcEUNp3vz-113">
          <mxGeometry x="-0.5179" relative="1" as="geometry">
            <mxPoint as="offset" />
          </mxGeometry>
        </mxCell>
        <mxCell id="fpXEtSabcTMRcEUNp3vz-127" value="&lt;i&gt;PUT&lt;/i&gt;" style="edgeLabel;html=1;align=center;verticalAlign=middle;resizable=0;points=[];fontStyle=1" vertex="1" connectable="0" parent="fpXEtSabcTMRcEUNp3vz-113">
          <mxGeometry x="-0.7023" y="3" relative="1" as="geometry">
            <mxPoint y="47" as="offset" />
          </mxGeometry>
        </mxCell>
        <mxCell id="fpXEtSabcTMRcEUNp3vz-2" value="" style="outlineConnect=0;dashed=0;verticalLabelPosition=bottom;verticalAlign=top;align=center;html=1;shape=mxgraph.aws3.classic_load_balancer;fillColor=#F58534;gradientColor=none;" vertex="1" parent="1">
          <mxGeometry x="-80" y="219" width="69" height="72" as="geometry" />
        </mxCell>
        <mxCell id="fpXEtSabcTMRcEUNp3vz-122" style="edgeStyle=orthogonalEdgeStyle;rounded=0;orthogonalLoop=1;jettySize=auto;html=1;entryX=0;entryY=0.5;entryDx=0;entryDy=0;entryPerimeter=0;" edge="1" parent="1" source="fpXEtSabcTMRcEUNp3vz-120" target="fpXEtSabcTMRcEUNp3vz-123">
          <mxGeometry relative="1" as="geometry">
            <mxPoint x="1770" y="291" as="targetPoint" />
          </mxGeometry>
        </mxCell>
        <mxCell id="fpXEtSabcTMRcEUNp3vz-120" value="Email" style="sketch=0;outlineConnect=0;fontColor=#232F3E;gradientColor=none;strokeColor=#232F3E;fillColor=#ffffff;dashed=0;verticalLabelPosition=bottom;verticalAlign=top;align=center;html=1;fontSize=12;fontStyle=0;aspect=fixed;shape=mxgraph.aws4.resourceIcon;resIcon=mxgraph.aws4.email;" vertex="1" parent="1">
          <mxGeometry x="1640" y="261" width="60" height="60" as="geometry" />
        </mxCell>
        <mxCell id="fpXEtSabcTMRcEUNp3vz-123" value="" style="points=[[0.145,0.145,0],[0.5,0,0],[0.855,0.145,0],[1,0.5,0],[0.855,0.855,0],[0.5,1,0],[0.145,0.855,0],[0,0.5,0]];shape=mxgraph.bpmn.event;html=1;verticalLabelPosition=bottom;labelBackgroundColor=#ffffff;verticalAlign=top;align=center;perimeter=ellipsePerimeter;outlineConnect=0;aspect=fixed;outline=end;symbol=terminate2;" vertex="1" parent="1">
          <mxGeometry x="1780" y="271" width="40" height="40" as="geometry" />
        </mxCell>
        <mxCell id="fpXEtSabcTMRcEUNp3vz-129" style="edgeStyle=orthogonalEdgeStyle;rounded=0;orthogonalLoop=1;jettySize=auto;html=1;" edge="1" parent="1" source="fpXEtSabcTMRcEUNp3vz-128" target="fpXEtSabcTMRcEUNp3vz-2">
          <mxGeometry relative="1" as="geometry" />
        </mxCell>
        <mxCell id="fpXEtSabcTMRcEUNp3vz-130" style="edgeStyle=orthogonalEdgeStyle;rounded=0;orthogonalLoop=1;jettySize=auto;html=1;entryX=0.5;entryY=0;entryDx=0;entryDy=0;" edge="1" parent="1" source="fpXEtSabcTMRcEUNp3vz-128" target="fpXEtSabcTMRcEUNp3vz-93">
          <mxGeometry relative="1" as="geometry" />
        </mxCell>
        <mxCell id="fpXEtSabcTMRcEUNp3vz-128" value="" style="strokeWidth=2;html=1;shape=mxgraph.flowchart.decision;whiteSpace=wrap;" vertex="1" parent="1">
          <mxGeometry x="-275" y="230" width="50" height="48" as="geometry" />
        </mxCell>
      </root>
    </mxGraphModel>
  </diagram>
</mxfile>
